<!DOCTYPE svg PUBLIC "-//W3C//DTD SVG 1.1//EN" "http://www.w3.org/Graphics/SVG/1.1/DTD/svg11.dtd">
<!-- Uploaded to: SVG Repo, www.svgrepo.com, Transformed by: SVG Repo Mixer Tools -->
<svg height="64px" width="64px" version="1.1" id="Layer_1" xmlns="http://www.w3.org/2000/svg" xmlns:xlink="http://www.w3.org/1999/xlink" viewBox="0 0 512 512" xml:space="preserve" fill="#000000">
<g id="SVGRepo_bgCarrier" stroke-width="0"/>
<g id="SVGRepo_tracerCarrier" stroke-linecap="round" stroke-linejoin="round"/>
<g id="SVGRepo_iconCarrier"> <circle style="fill:#14C18B;" cx="256" cy="256" r="256"/> <path style="fill:#0F9168;" d="M128.1,335.9l172.3,172.3c93.4-16.3,169.4-83.3,198.7-171.6L269.9,107.4L128.1,335.9z"/> <path style="fill:#FFFFFF;" d="M370.9,340.7H141.1c-7.2,0-13.8-3.8-17.3-10s-3.6-13.8,0-20l114.9-198.9c3.6-6.2,10.2-10,17.3-10 c7.1,0,13.8,3.8,17.3,10l114.9,198.9c3.6,6.2,3.6,13.8,0,20S378,340.7,370.9,340.7z M175.8,300.7h160.4l-80.2-139L175.8,300.7z"/> </g>
</svg>