<svg width="52" height="52" viewBox="0 0 52 52" fill="none" xmlns="http://www.w3.org/2000/svg">
<g id="cart 1">
<path id="Vector" d="M37.375 37.375H14.1818L8.51533 6.20932C8.44725 5.8349 8.24993 5.49625 7.95776 5.25241C7.66558 5.00855 7.2971 4.875 6.91654 4.875H3.25" stroke="#111112" stroke-width="1.4" stroke-linecap="round" stroke-linejoin="round"/>
<path id="Vector_2" d="M16.25 45.5C18.4936 45.5 20.3125 43.6811 20.3125 41.4375C20.3125 39.1939 18.4936 37.375 16.25 37.375C14.0064 37.375 12.1875 39.1939 12.1875 41.4375C12.1875 43.6811 14.0064 45.5 16.25 45.5Z" stroke="#111112" stroke-width="1.4" stroke-linecap="round" stroke-linejoin="round"/>
<path id="Vector_3" d="M37.375 45.5C39.6186 45.5 41.4375 43.6811 41.4375 41.4375C41.4375 39.1939 39.6186 37.375 37.375 37.375C35.1314 37.375 33.3125 39.1939 33.3125 41.4375C33.3125 43.6811 35.1314 45.5 37.375 45.5Z" stroke="#111112" stroke-width="1.4" stroke-linecap="round" stroke-linejoin="round"/>
<path id="Vector_4" d="M12.7045 29.25H38.2081C38.9692 29.25 39.7061 28.9829 40.2905 28.4951C40.8748 28.0074 41.2696 27.3301 41.4057 26.5813L43.875 13H9.75" stroke="#111112" stroke-width="1.4" stroke-linecap="round" stroke-linejoin="round"/>
</g>
</svg>
