<svg width="50" height="50" viewBox="0 0 50 50" fill="none" xmlns="http://www.w3.org/2000/svg">
<g id="ser 1">
<path id="Vector" d="M45.1019 41.4054C42.1273 36.2629 37.5434 32.5754 32.1936 30.8273C34.8398 29.2521 36.8957 26.8517 38.0457 23.995C39.1957 21.1381 39.3759 17.9828 38.559 15.0136C37.7421 12.0444 35.9732 9.42538 33.5238 7.55883C31.0742 5.69229 28.0798 4.6814 25.0002 4.6814C21.9207 4.6814 18.9264 5.69229 16.4769 7.55883C14.0275 9.42538 12.2585 12.0444 11.4416 15.0136C10.6247 17.9828 10.8051 21.1381 11.955 23.995C13.1049 26.8517 15.1608 29.2521 17.807 30.8273C12.4574 32.5733 7.87335 36.2608 4.89875 41.4054C4.78967 41.5833 4.71731 41.7812 4.68596 41.9875C4.6546 42.1937 4.66487 42.4044 4.71619 42.6065C4.76748 42.8087 4.85877 42.9987 4.98467 43.165C5.11056 43.3315 5.26852 43.471 5.44919 43.5754C5.62987 43.6798 5.82962 43.7469 6.03667 43.7727C6.24369 43.7987 6.45383 43.7829 6.65465 43.7262C6.85548 43.6696 7.04294 43.5733 7.20596 43.4431C7.36898 43.3129 7.50427 43.1512 7.60383 42.9679C11.2835 36.6085 17.7874 32.8117 25.0002 32.8117C32.2132 32.8117 38.7171 36.6085 42.3967 42.9679C42.4963 43.1512 42.6317 43.3129 42.7946 43.4431C42.9577 43.5733 43.1452 43.6696 43.3459 43.7262C43.5467 43.7829 43.7569 43.7987 43.964 43.7727C44.1711 43.7469 44.3707 43.6798 44.5515 43.5754C44.7321 43.471 44.89 43.3315 45.0159 43.165C45.1419 42.9987 45.2332 42.8087 45.2844 42.6065C45.3357 42.4044 45.3461 42.1937 45.3146 41.9875C45.2834 41.7812 45.2109 41.5833 45.1019 41.4054ZM14.0628 18.7492C14.0628 16.586 14.7043 14.4713 15.9061 12.6727C17.1079 10.874 18.8161 9.4721 20.8147 8.64427C22.8134 7.81644 25.0125 7.59985 27.1342 8.02188C29.2559 8.4439 31.2046 9.48558 32.7342 11.0152C34.264 12.5449 35.3057 14.4937 35.7277 16.6154C36.1496 18.7371 35.9332 20.9363 35.1052 22.9348C34.2773 24.9333 32.8755 26.6417 31.0769 27.8433C29.2782 29.0452 27.1636 29.6867 25.0002 29.6867C22.1005 29.6835 19.3203 28.5302 17.2698 26.4798C15.2192 24.4292 14.0659 21.6492 14.0628 18.7492Z" fill="#212121"/>
</g>
</svg>
