<?xml version="1.0" standalone="no"?><svg xmlns="http://www.w3.org/2000/svg" viewBox="0 0 1440 320"><path fill="#0099ff" fill-opacity="1" d="M0,64L26.7,58.7C53.3,53,107,43,160,58.7C213.3,75,267,117,320,133.3C373.3,149,427,139,480,149.3C533.3,160,587,192,640,176C693.3,160,747,96,800,90.7C853.3,85,907,139,960,181.3C1013.3,224,1067,256,1120,224C1173.3,192,1227,96,1280,96C1333.3,96,1387,192,1413,240L1440,288L1440,320L1413.3,320C1386.7,320,1333,320,1280,320C1226.7,320,1173,320,1120,320C1066.7,320,1013,320,960,320C906.7,320,853,320,800,320C746.7,320,693,320,640,320C586.7,320,533,320,480,320C426.7,320,373,320,320,320C266.7,320,213,320,160,320C106.7,320,53,320,27,320L0,320Z"></path></svg>